HIERARCHY
ROOT Hips
{
  OFFSET -206.729 90.3271 1184.84
  CHANNELS 6 Xposition Yposition Zposition Zrotation Xrotation Yrotation
  JOINT Spine
  {
    OFFSET 1.8641e-05 8.00001 0
    CHANNELS 6 Xposition Yposition Zposition Zrotation Xrotation Yrotation
    JOINT Spine1
    {
      OFFSET 0.00171074 7.99998 -0.00171153
      CHANNELS 6 Xposition Yposition Zposition Zrotation Xrotation Yrotation
      JOINT Spine2
      {
        OFFSET -0.000923298 8.00002 0.00121404
        CHANNELS 6 Xposition Yposition Zposition Zrotation Xrotation Yrotation
        JOINT Spine3
        {
          OFFSET 0 8 0
          CHANNELS 6 Xposition Yposition Zposition Zrotation Xrotation Yrotation
          JOINT Neck
          {
            OFFSET -0.000203862 17.0003 -0.000188781
            CHANNELS 6 Xposition Yposition Zposition Zrotation Xrotation Yrotation
            JOINT Head
            {
              OFFSET -0.00086243 10.7999 0.000485631
              CHANNELS 6 Xposition Yposition Zposition Zrotation Xrotation Yrotation
              End Site
              {
                OFFSET 0 20.25 0
              }
            }
          }
          JOINT LeftShoulder
          {
            OFFSET 4.99982 17 -4.87162e-05
            CHANNELS 6 Xposition Yposition Zposition Zrotation Xrotation Yrotation
            JOINT LeftShoulder2
            {
              OFFSET 6.45 0 0
              CHANNELS 6 Xposition Yposition Zposition Zrotation Xrotation Yrotation
              JOINT LeftArm
              {
                OFFSET 6.44998 -0.000864666 -0.00010984
                CHANNELS 6 Xposition Yposition Zposition Zrotation Xrotation Yrotation
                JOINT LeftForeArm
                {
                  OFFSET 0.00204199 -32.3984 -2.00176
                  CHANNELS 6 Xposition Yposition Zposition Zrotation Xrotation Yrotation
                  JOINT LeftHand
                  {
                    OFFSET -0.000437176 -25.6492 2.00071
                    CHANNELS 6 Xposition Yposition Zposition Zrotation Xrotation Yrotation
                    JOINT LeftHandThumb1
                    {
                      OFFSET -0.501409 -1.50126 2.64805
                      CHANNELS 6 Xposition Yposition Zposition Zrotation Xrotation Yrotation
                      JOINT LeftHandThumb2
                      {
                        OFFSET 0.00040061 -3.79995 3.6984
                        CHANNELS 6 Xposition Yposition Zposition Zrotation Xrotation Yrotation
                        JOINT LeftHandThumb3
                        {
                          OFFSET -0.0016904 -2.99956 2.69808
                          CHANNELS 6 Xposition Yposition Zposition Zrotation Xrotation Yrotation
                          End Site
                          {
                            OFFSET 0.000466516 -2.29954 1.79949
                          }
                        }
                      }
                    }
                    JOINT LeftHandIndex
                    {
                      OFFSET -0.00521029 -1.90093 1.59876
                      CHANNELS 6 Xposition Yposition Zposition Zrotation Xrotation Yrotation
                      JOINT LeftHandIndex1
                      {
                        OFFSET -4.75568e-05 -8.30042 1.90045
                        CHANNELS 6 Xposition Yposition Zposition Zrotation Xrotation Yrotation
                        JOINT LeftHandIndex2
                        {
                          OFFSET 0.000708462 -4.50181 0.00425881
                          CHANNELS 6 Xposition Yposition Zposition Zrotation Xrotation Yrotation
                          JOINT LeftHandIndex3
                          {
                            OFFSET 0.00195331 -3.40003 0.00245448
                            CHANNELS 6 Xposition Yposition Zposition Zrotation Xrotation Yrotation
                            End Site
                            {
                              OFFSET -0.00198569 -2.6013 -0.00341346
                            }
                          }
                        }
                      }
                    }
                    JOINT LeftHandMiddle
                    {
                      OFFSET -0.249742 -2.20007 0.399904
                      CHANNELS 6 Xposition Yposition Zposition Zrotation Xrotation Yrotation
                      JOINT LeftHandMiddle1
                      {
                        OFFSET 0.000319611 -8.30083 0.998482
                        CHANNELS 6 Xposition Yposition Zposition Zrotation Xrotation Yrotation
                        JOINT LeftHandMiddle2
                        {
                          OFFSET 0.000402034 -4.6505 -0.000394291
                          CHANNELS 6 Xposition Yposition Zposition Zrotation Xrotation Yrotation
                          JOINT LeftHandMiddle3
                          {
                            OFFSET 0.000302843 -3.29632 -0.00258271
                            CHANNELS 6 Xposition Yposition Zposition Zrotation Xrotation Yrotation
                            End Site
                            {
                              OFFSET -0.000197716 -2.70296 -0.00133478
                            }
                          }
                        }
                      }
                    }
                    JOINT LeftHandRing
                    {
                      OFFSET -0.497508 -2.14806 -0.797067
                      CHANNELS 6 Xposition Yposition Zposition Zrotation Xrotation Yrotation
                      JOINT LeftHandRing1
                      {
                        OFFSET 0.00102614 -7.74953 -0.199208
                        CHANNELS 6 Xposition Yposition Zposition Zrotation Xrotation Yrotation
                        JOINT LeftHandRing2
                        {
                          OFFSET 0.0017676 -3.79987 -0.000109005
                          CHANNELS 6 Xposition Yposition Zposition Zrotation Xrotation Yrotation
                          JOINT LeftHandRing3
                          {
                            OFFSET -0.0013457 -3.39946 -0.00163432
                            CHANNELS 6 Xposition Yposition Zposition Zrotation Xrotation Yrotation
                            End Site
                            {
                              OFFSET -0.00023482 -2.60062 0.0036126
                            }
                          }
                        }
                      }
                    }
                    JOINT LeftHandPinky
                    {
                      OFFSET -0.752803 -1.75379 -1.85001
                      CHANNELS 6 Xposition Yposition Zposition Zrotation Xrotation Yrotation
                      JOINT LeftHandPinky1
                      {
                        OFFSET 0.00563844 -7.14789 -0.997871
                        CHANNELS 6 Xposition Yposition Zposition Zrotation Xrotation Yrotation
                        JOINT LeftHandPinky2
                        {
                          OFFSET -0.00315399 -3.00383 -0.00290738
                          CHANNELS 6 Xposition Yposition Zposition Zrotation Xrotation Yrotation
                          JOINT LeftHandPinky3
                          {
                            OFFSET 0.00378631 -2.35326 0.000737585
                            CHANNELS 6 Xposition Yposition Zposition Zrotation Xrotation Yrotation
                            End Site
                            {
                              OFFSET -0.00101117 -2.10238 0.000293416
                            }
                          }
                        }
                      }
                    }
                  }
                }
              }
            }
          }
          JOINT RightShoulder
          {
            OFFSET -5.00015 17 -3.49781e-05
            CHANNELS 6 Xposition Yposition Zposition Zrotation Xrotation Yrotation
            JOINT RightShoulder2
            {
              OFFSET -6.45 0 0
              CHANNELS 6 Xposition Yposition Zposition Zrotation Xrotation Yrotation
              JOINT RightArm
              {
                OFFSET -6.45001 -0.00024751 1.31711e-05
                CHANNELS 6 Xposition Yposition Zposition Zrotation Xrotation Yrotation
                JOINT RightForeArm
                {
                  OFFSET -0.00168098 -32.3948 -1.99367
                  CHANNELS 6 Xposition Yposition Zposition Zrotation Xrotation Yrotation
                  JOINT RightHand
                  {
                    OFFSET 0.00176311 -25.6437 2.00296
                    CHANNELS 6 Xposition Yposition Zposition Zrotation Xrotation Yrotation
                    JOINT RightHandThumb1
                    {
                      OFFSET 0.499897 -1.49869 2.65064
                      CHANNELS 6 Xposition Yposition Zposition Zrotation Xrotation Yrotation
                      JOINT RightHandThumb2
                      {
                        OFFSET 0 -3.8 3.69999
                        CHANNELS 6 Xposition Yposition Zposition Zrotation Xrotation Yrotation
                        JOINT RightHandThumb3
                        {
                          OFFSET -9.75596e-05 -2.99989 2.7
                          CHANNELS 6 Xposition Yposition Zposition Zrotation Xrotation Yrotation
                          End Site
                          {
                            OFFSET 0.000188801 -2.29997 1.80004
                          }
                        }
                      }
                    }
                    JOINT RightHandIndex
                    {
                      OFFSET 0.000830888 -1.90197 1.60598
                      CHANNELS 6 Xposition Yposition Zposition Zrotation Xrotation Yrotation
                      JOINT RightHandIndex1
                      {
                        OFFSET -0.00139284 -8.29978 1.89946
                        CHANNELS 6 Xposition Yposition Zposition Zrotation Xrotation Yrotation
                        JOINT RightHandIndex2
                        {
                          OFFSET 0.000182115 -4.50059 -0.000462907
                          CHANNELS 6 Xposition Yposition Zposition Zrotation Xrotation Yrotation
                          JOINT RightHandIndex3
                          {
                            OFFSET -0.00270714 -3.39765 0.0049212
                            CHANNELS 6 Xposition Yposition Zposition Zrotation Xrotation Yrotation
                            End Site
                            {
                              OFFSET 0.000291289 -2.60101 -0.00195194
                            }
                          }
                        }
                      }
                    }
                    JOINT RightHandMiddle
                    {
                      OFFSET 0.248585 -2.20088 0.399362
                      CHANNELS 6 Xposition Yposition Zposition Zrotation Xrotation Yrotation
                      JOINT RightHandMiddle1
                      {
                        OFFSET 0.00174667 -8.30111 1.00015
                        CHANNELS 6 Xposition Yposition Zposition Zrotation Xrotation Yrotation
                        JOINT RightHandMiddle2
                        {
                          OFFSET 0.000349942 -4.65008 0.000221713
                          CHANNELS 6 Xposition Yposition Zposition Zrotation Xrotation Yrotation
                          JOINT RightHandMiddle3
                          {
                            OFFSET 0.000556525 -3.29994 7.03802e-05
                            CHANNELS 6 Xposition Yposition Zposition Zrotation Xrotation Yrotation
                            End Site
                            {
                              OFFSET -0.000379286 -2.70037 -0.00127304
                            }
                          }
                        }
                      }
                    }
                    JOINT RightHandRing
                    {
                      OFFSET 0.500271 -2.15075 -0.800837
                      CHANNELS 6 Xposition Yposition Zposition Zrotation Xrotation Yrotation
                      JOINT RightHandRing1
                      {
                        OFFSET 0.00163264 -7.75089 -0.199326
                        CHANNELS 6 Xposition Yposition Zposition Zrotation Xrotation Yrotation
                        JOINT RightHandRing2
                        {
                          OFFSET -0.000812539 -3.80049 -0.000349077
                          CHANNELS 6 Xposition Yposition Zposition Zrotation Xrotation Yrotation
                          JOINT RightHandRing3
                          {
                            OFFSET 0.000827892 -3.39951 -0.000181745
                            CHANNELS 6 Xposition Yposition Zposition Zrotation Xrotation Yrotation
                            End Site
                            {
                              OFFSET 0.000216635 -2.60013 -1.83649e-05
                            }
                          }
                        }
                      }
                    }
                    JOINT RightHandPinky
                    {
                      OFFSET 0.750917 -1.74947 -1.84971
                      CHANNELS 6 Xposition Yposition Zposition Zrotation Xrotation Yrotation
                      JOINT RightHandPinky1
                      {
                        OFFSET 0.000286472 -7.14939 -0.999867
                        CHANNELS 6 Xposition Yposition Zposition Zrotation Xrotation Yrotation
                        JOINT RightHandPinky2
                        {
                          OFFSET 0.00155362 -3.00038 0.000946823
                          CHANNELS 6 Xposition Yposition Zposition Zrotation Xrotation Yrotation
                          JOINT RightHandPinky3
                          {
                            OFFSET -0.00012357 -2.34958 0.00102581
                            CHANNELS 6 Xposition Yposition Zposition Zrotation Xrotation Yrotation
                            End Site
                            {
                              OFFSET 0.000653952 -2.10027 -0.00115384
                            }
                          }
                        }
                      }
                    }
                  }
                }
              }
            }
          }
        }
      }
    }
  }
  JOINT LeftUpLeg
  {
    OFFSET 8.00004 0 8.10887e-05
    CHANNELS 6 Xposition Yposition Zposition Zrotation Xrotation Yrotation
    JOINT LeftLeg
    {
      OFFSET -0.000601798 -45.0007 -0.998458
      CHANNELS 6 Xposition Yposition Zposition Zrotation Xrotation Yrotation
      JOINT LeftFoot
      {
        OFFSET -0.000979515 -40.9999 -1.99915
        CHANNELS 6 Xposition Yposition Zposition Zrotation Xrotation Yrotation
        JOINT LeftToeBase
        {
          OFFSET -0.000269272 -7.5 12.5003
          CHANNELS 6 Xposition Yposition Zposition Zrotation Xrotation Yrotation
          JOINT LeftFootToe
          {
            OFFSET 0 0 4
            CHANNELS 6 Xposition Yposition Zposition Zrotation Xrotation Yrotation
            End Site
            {
              OFFSET 0 0 0
            }
          }
        }
      }
    }
  }
  JOINT RightUpLeg
  {
    OFFSET -8.00004 0 -8.10887e-05
    CHANNELS 6 Xposition Yposition Zposition Zrotation Xrotation Yrotation
    JOINT RightLeg
    {
      OFFSET -0.000461969 -45.0002 -0.999516
      CHANNELS 6 Xposition Yposition Zposition Zrotation Xrotation Yrotation
      JOINT RightFoot
      {
        OFFSET 6.4707e-05 -41 -1.99991
        CHANNELS 6 Xposition Yposition Zposition Zrotation Xrotation Yrotation
        JOINT RightToeBase
        {
          OFFSET 0.00128112 -7.5 12.4991
          CHANNELS 6 Xposition Yposition Zposition Zrotation Xrotation Yrotation
          JOINT RightFootToe
          {
            OFFSET 0 0 4
            CHANNELS 6 Xposition Yposition Zposition Zrotation Xrotation Yrotation
            End Site
            {
              OFFSET 0 0 0
            }
          }
        }
      }
    }
  }
}
MOTION
Frames:	3
Frame Time:	0.0111111
-208.879 91.0948 1172.83 -12.9406 -13.4918 127.741 -1.13687e-13 8 0 2.15556 23.4189 14.3544 1.13687e-13 8 1.13687e-13 0.273339 9.71427 2.53023 2.27374e-13 8 0 0.190281 4.86527 1.26918 1.13687e-13 8 0 0.189536 4.84639 1.26662 -1.13687e-13 17 1.13687e-13 2.16005 -0.908957 1.97909 1.13687e-13 10.8 -2.27374e-13 5.0801 -2.01704 4.6672 5 17 1.13687e-13 -18.0701 -5.07429 17.5482 6.45 0 1.13687e-13 -1.45403 0.261092 2.1144 6.45 0 1.13687e-13 32.2102 -13.3878 -8.52626 0 -32.4 -2 35.883 -57.3379 -11.8419 2.27374e-13 -25.65 2 64.4321 -33.4566 11.0872 -0.5 -1.5 2.65 -58.8222 5.73639 57.7582 2.27374e-13 -3.8 3.7 -0.243742 22.7356 0.0141332 -2.27374e-13 -3 2.7 -0.0620874 15.8102 0.090174 -1.13687e-13 -1.9 1.6 4.62728e-06 -6.88466e-06 -7.70511e-06 0 -8.3 1.9 -70.2628 -7.4773 -3.58074 0 -4.5 1.13687e-13 -15.5995 -0.0264371 0.0662552 0 -3.4 -1.13687e-13 -12.9223 -0.0175945 0.0345529 -0.25 -2.2 0.4 4.62728e-06 -6.88466e-06 -7.70511e-06 0 -8.3 1 -62.2814 -4.30435 -0.131175 -3.41061e-13 -4.65 5.68434e-14 -0.612943 -0.114977 0.184854 -2.27374e-13 -3.3 0 10.0628 0.0764705 0.0657609 -0.5 -2.15 -0.8 4.62728e-06 -6.88466e-06 -7.70511e-06 -1.13687e-13 -7.75 -0.2 -76.3088 -3.77624 3.2687 -2.27374e-13 -3.8 0 -1.10238 -0.452523 0.00783575 -2.27374e-13 -3.4 2.84217e-14 -89.9961 0.0342492 -3.22405 -0.75 -1.75 -1.85 4.62728e-06 -6.88466e-06 -7.70511e-06 -2.84217e-14 -7.15 -1 -89.7657 0.132995 16.1613 0 -3 0 -0.22291 0.395786 0.213963 -2.27374e-13 -2.35 -5.68434e-14 0.0001422 -0.0430394 0.200503 -5 17 0 -8.7624 -2.13381 6.74113 -6.45 -1.13687e-13 -1.13687e-13 -0.930815 -0.340475 -2.07372 -6.45 2.27374e-13 1.13687e-13 -26.0783 -53.3862 14.7841 0 -32.4 -2 25.8499 -70.857 -3.97666 0 -25.65 2 30.7741 0.536959 -4.91055 0.5 -1.5 2.65 -66.6163 15.1884 -82.027 2.27374e-13 -3.8 3.7 0.110924 -0.420117 0.00584035 0 -3 2.7 0.0073095 25.0196 -0.00374946 -1.13687e-13 -1.9 1.6 -1.73628e-06 -2.66185e-06 -2.79794e-06 0 -8.3 1.9 1.29148 -9.48102 0.061075 1.13687e-13 -4.5 -2.27374e-13 -0.0541397 -0.0287446 0.00350801 0 -3.4 -2.27374e-13 -0.104924 0.000894956 0.00582377 0.25 -2.2 0.4 -1.73628e-06 -2.66185e-06 -2.79794e-06 -1.13687e-13 -8.3 1 1.16481 -9.1986 -0.00531323 -2.27374e-13 -4.65 -5.68434e-14 1.38902 14.0338 9.49237 0 -3.3 -5.68434e-14 50.9704 0.00957064 0.0129815 0.5 -2.15 -0.8 -1.73628e-06 -2.66185e-06 -2.79794e-06 0 -7.75 -0.2 -0.225924 -2.587 -0.00393335 1.13687e-13 -3.8 5.68434e-14 2.32608 20.9356 15.3216 0 -3.4 -1.13687e-13 57.6043 0.00736287 0.00729429 0.75 -1.75 -1.85 -1.73628e-06 -2.66185e-06 -2.79794e-06 0 -7.15 -1 28.1381 -1.46438 -0.671449 2.27374e-13 -3 0 2.73819 7.2491 1.16616 0 -2.35 0 16.4938 0.00589152 -0.00047779 8 -2.84217e-14 -2.27374e-13 -4.14904 -28.5384 -44.9667 0 -45 -1 16.9454 13.7294 -5.44953 0 -41 -2 -18.4212 -3.60838 24.3557 1.13687e-13 -7.5 12.5 3.43943e-07 -4.07422e-07 -1.59165e-08 -1.13687e-13 0 4 14.0334 0.583733 94.2697 -8 5.68434e-14 1.13687e-13 -5.13325 -4.79951 -56.1955 0 -45 -1 16.7819 -6.54604 3.88724 0 -41 -2 -0.914355 5.14298 25.3521 0 -7.5 12.5 -0.000531708 -0.146085 -0.209375 2.27374e-13 0 4 -5.49411 11.9658 51.0311 
-208.881 91.0938 1172.82 -12.9366 -13.4813 127.745 0 8 1.13687e-13 2.18027 23.4126 14.3535 1.13687e-13 8 1.13687e-13 0.287482 9.71146 2.53632 -1.13687e-13 8 -2.27374e-13 0.197448 4.86365 1.27247 2.27374e-13 8 -1.13687e-13 0.196751 4.84487 1.26819 -1.13687e-13 17 1.13687e-13 2.1405 -0.92641 1.97188 2.27374e-13 10.8 -2.27374e-13 5.0353 -2.05917 4.64645 5 17 1.13687e-13 -18.0147 -5.03726 17.6179 6.45 -1.13687e-13 0 -1.44712 0.262467 2.11581 6.45 1.13687e-13 0 32.078 -13.5172 -8.66419 0 -32.4 -2 35.7596 -57.3717 -11.97 2.27374e-13 -25.65 2 64.4814 -33.4115 11.1048 -0.5 -1.5 2.65 -58.9468 5.67604 57.9413 1.13687e-13 -3.8 3.7 -0.247118 22.6575 0.0140102 0 -3 2.7 -0.0616367 15.7928 0.0892767 -1.13687e-13 -1.9 1.6 4.62728e-06 -6.88466e-06 -7.70511e-06 0 -8.3 1.9 -70.3348 -7.47726 -3.58336 1.13687e-13 -4.5 -5.68434e-14 -15.7462 -0.0264416 0.0663481 0 -3.4 -1.7053e-13 -13.0249 -0.0176386 0.0346069 -0.25 -2.2 0.4 4.62728e-06 -6.88466e-06 -7.70511e-06 -5.68434e-14 -8.3 1 -62.3464 -4.23414 -0.0870413 -2.27374e-13 -4.65 0 -0.612944 -0.115274 0.183722 -1.13687e-13 -3.3 0 10.0218 0.0766382 0.0656177 -0.5 -2.15 -0.8 4.62728e-06 -6.88466e-06 -7.70511e-06 -8.52651e-14 -7.75 -0.2 -76.3815 -3.73121 3.31594 0 -3.8 -2.84217e-14 -1.10238 -0.45192 0.00783575 -2.27374e-13 -3.4 1.13687e-13 -89.9961 0.0342492 -3.22329 -0.75 -1.75 -1.85 4.62728e-06 -6.88466e-06 -7.70511e-06 0 -7.15 -1 -89.7826 0.130625 16.2011 -2.27374e-13 -3 5.68434e-14 -0.223706 0.395863 0.212787 0 -2.35 -2.84217e-14 0.000138425 -0.0422274 0.199236 -5 17 1.13687e-13 -8.81176 -2.1331 6.78246 -6.45 -1.13687e-13 -1.13687e-13 -0.934408 -0.340456 -2.07377 -6.45 1.13687e-13 -1.13687e-13 -25.8915 -53.5919 14.9083 0 -32.4 -2 25.7485 -70.6221 -4.38763 5.68434e-14 -25.65 2 30.8083 0.585206 -4.97082 0.5 -1.5 2.65 -66.7658 14.8548 -81.9878 2.27374e-13 -3.8 3.7 0.111813 -0.409061 0.00734375 -1.13687e-13 -3 2.7 0.00614936 24.9956 -0.00369253 1.13687e-13 -1.9 1.6 -1.73628e-06 -2.66185e-06 -2.79794e-06 0 -8.3 1.9 1.26366 -9.36311 0.058275 1.13687e-13 -4.5 -1.7053e-13 -0.0389803 0.00401193 0.000905049 0 -3.4 -2.84217e-13 -0.0274277 -0.000643519 0.0048592 0.25 -2.2 0.4 -1.73628e-06 -2.66185e-06 -2.79794e-06 -1.13687e-13 -8.3 1 1.17904 -8.99352 -0.00420476 -2.27374e-13 -4.65 -1.7053e-13 1.34024 14.1179 9.72216 1.13687e-13 -3.3 -5.68434e-14 52.0279 0.00700949 0.0248683 0.5 -2.15 -0.8 -1.73628e-06 -2.66185e-06 -2.79794e-06 0 -7.75 -0.2 0.0413109 -2.48787 -0.00624638 2.27374e-13 -3.8 -5.68434e-14 2.21164 21.0374 15.6677 -2.27374e-13 -3.4 -2.27374e-13 58.7597 0.00957698 0.0136455 0.75 -1.75 -1.85 -1.73628e-06 -2.66185e-06 -2.79794e-06 -1.13687e-13 -7.15 -1 30.1121 -1.68667 -0.726056 1.13687e-13 -3 2.27374e-13 2.74032 7.2481 1.15539 -1.13687e-13 -2.35 1.13687e-13 16.4936 0.00189394 -0.00712438 8 5.68434e-14 -1.13687e-13 -4.20132 -28.5406 -44.9904 0 -45 -1 16.9691 13.7989 -5.46299 0 -41 -2 -18.425 -3.6393 24.3426 0 -7.5 12.5 3.43943e-07 -4.07422e-07 -1.59165e-08 1.13687e-13 -1.77636e-15 4 14.0293 0.563439 94.2736 -8 -2.84217e-14 1.13687e-13 -5.15113 -4.79279 -56.2083 0 -45 -1 16.7729 -6.52964 3.87555 0 -41 -2 -0.899239 5.13903 25.3548 0 -7.5 12.5 -0.000532309 -0.145932 -0.20983 0 0 4 -5.50038 11.9619 51.0465 
-208.882 91.0927 1172.8 -12.9303 -13.476 127.751 1.13687e-13 8 2.27374e-13 2.19992 23.406 14.3522 0 8 1.13687e-13 0.300035 9.70861 2.54235 0 8 0 0.20383 4.86203 1.27565 1.13687e-13 8 0 0.203401 4.84337 1.27053 -1.13687e-13 17 0 2.12396 -0.944883 1.96834 1.13687e-13 10.8 -1.13687e-13 4.99757 -2.10356 4.63476 5 17 1.13687e-13 -17.9656 -5.00223 17.6738 6.45 -2.27374e-13 -1.13687e-13 -1.44128 0.264911 2.11721 6.45 -1.13687e-13 -1.13687e-13 31.966 -13.6054 -8.76454 -1.13687e-13 -32.4 -2 35.7121 -57.4316 -12.0092 1.13687e-13 -25.65 2 64.513 -33.3843 11.1137 -0.5 -1.5 2.65 -59.0723 5.62171 58.1071 1.13687e-13 -3.8 3.7 -0.250008 22.591 0.0138793 -2.27374e-13 -3 2.7 -0.0611095 15.7734 0.0880876 -1.13687e-13 -1.9 1.6 4.62728e-06 -6.88466e-06 -7.70511e-06 -2.84217e-14 -8.3 1.9 -70.4231 -7.48033 -3.58882 0 -4.5 5.68434e-14 -15.8617 -0.0264381 0.0664274 0 -3.4 -1.7053e-13 -13.1055 -0.0176746 0.0346545 -0.25 -2.2 0.4 4.62728e-06 -6.88466e-06 -7.70511e-06 0 -8.3 1 -62.4039 -4.15994 -0.0407774 -2.27374e-13 -4.65 0 -0.612945 -0.115577 0.182565 0 -3.3 -5.68434e-14 9.98443 0.0767932 0.0654617 -0.5 -2.15 -0.8 4.62728e-06 -6.88466e-06 -7.70511e-06 -8.52651e-14 -7.75 -0.2 -76.4594 -3.68552 3.36461 0 -3.8 -2.84217e-14 -1.10238 -0.451316 0.00783575 -4.54747e-13 -3.4 8.52651e-14 -89.9961 0.0342492 -3.22252 -0.75 -1.75 -1.85 4.62728e-06 -6.88466e-06 -7.70511e-06 0 -7.15 -1 -89.7999 0.128283 16.2425 -2.27374e-13 -3 2.84217e-14 -0.224425 0.395939 0.211528 -2.27374e-13 -2.35 -2.84217e-14 0.000134678 -0.0414136 0.197968 -5 17 0 -8.848 -2.13293 6.82075 -6.45 -1.13687e-13 0 -0.935416 -0.340439 -2.07379 -6.45 -1.13687e-13 0 -25.7163 -53.7676 15.0489 0 -32.4 -2 25.745 -70.4248 -4.70854 0 -25.65 2 30.929 0.604456 -5.0862 0.5 -1.5 2.65 -67.007 14.375 -82.0438 3.41061e-13 -3.8 3.7 0.112441 -0.406457 0.00804186 0 -3 2.7 0.00580868 24.897 -0.00363379 0 -1.9 1.6 -1.73628e-06 -2.66185e-06 -2.79794e-06 0 -8.3 1.9 1.23168 -9.24476 0.0558439 2.27374e-13 -4.5 -2.27374e-13 -0.0339161 0.0150398 9.62561e-05 1.13687e-13 -3.4 -3.41061e-13 0.000660073 -0.00118339 0.00578001 0.25 -2.2 0.4 -1.73628e-06 -2.66185e-06 -2.79794e-06 -1.13687e-13 -8.3 1 1.17685 -8.75103 -0.0025188 0 -4.65 -1.13687e-13 1.2918 14.1959 9.9461 0 -3.3 0 53.0456 0.00846718 0.0291284 0.5 -2.15 -0.8 -1.73628e-06 -2.66185e-06 -2.79794e-06 0 -7.75 -0.2 0.296527 -2.3938 -0.00821597 2.27374e-13 -3.8 5.68434e-14 2.10487 21.1256 15.9855 0 -3.4 -1.7053e-13 59.8391 0.0114836 0.0151264 0.75 -1.75 -1.85 -1.73628e-06 -2.66185e-06 -2.79794e-06 0 -7.15 -1 31.9967 -1.81825 -0.801623 1.13687e-13 -3 1.13687e-13 2.73541 7.23176 1.14574 -1.13687e-13 -2.35 0 16.4648 -0.00120507 -0.0095178 8 -2.84217e-14 -2.27374e-13 -4.24328 -28.5491 -44.9911 2.27374e-13 -45 -1 16.9898 13.8633 -5.47802 -2.27374e-13 -41 -2 -18.4291 -3.6629 24.3085 0 -7.5 12.5 3.43943e-07 -4.07422e-07 -1.59165e-08 1.13687e-13 0 4 14.0227 0.543772 94.2775 -8 -2.84217e-14 2.27374e-13 -5.1602 -4.78123 -56.2191 2.27374e-13 -45 -1 16.7701 -6.52614 3.8678 0 -41 -2 -0.887679 5.14133 25.3573 0 -7.5 12.5 -0.000532904 -0.145778 -0.210285 0 0 4 -5.5028 11.9596 51.0561 
